<svg xmlns="http://www.w3.org/2000/svg" width="25" height="24" viewBox="0 0 25 24" fill="none">
  <path d="M12.75 2.04004C7.25 2.04004 2.75 6.53004 2.75 12.06C2.75 17.06 6.41 21.21 11.19 21.96V14.96H8.65V12.06H11.19V9.85004C11.19 7.34004 12.68 5.96004 14.97 5.96004C16.06 5.96004 17.2 6.15004 17.2 6.15004V8.62004H15.94C14.7 8.62004 14.31 9.39004 14.31 10.18V12.06H17.09L16.64 14.96H14.31V21.96C16.6664 21.5879 18.8122 20.3856 20.3599 18.5701C21.9076 16.7546 22.7554 14.4457 22.75 12.06C22.75 6.53004 18.25 2.04004 12.75 2.04004Z" fill="#898C8E"/>
</svg>
