<svg xmlns="http://www.w3.org/2000/svg" width="25" height="24" viewBox="0 0 25 24" fill="none">
  <path d="M8.55 2H16.95C20.15 2 22.75 4.6 22.75 7.8V16.2C22.75 17.7383 22.1389 19.2135 21.0512 20.3012C19.9635 21.3889 18.4883 22 16.95 22H8.55C5.35 22 2.75 19.4 2.75 16.2V7.8C2.75 6.26174 3.36107 4.78649 4.44878 3.69878C5.53649 2.61107 7.01174 2 8.55 2ZM8.35 4C7.39522 4 6.47955 4.37928 5.80442 5.05442C5.12928 5.72955 4.75 6.64522 4.75 7.6V16.4C4.75 18.39 6.36 20 8.35 20H17.15C18.1048 20 19.0205 19.6207 19.6956 18.9456C20.3707 18.2705 20.75 17.3548 20.75 16.4V7.6C20.75 5.61 19.14 4 17.15 4H8.35ZM18 5.5C18.3315 5.5 18.6495 5.6317 18.8839 5.86612C19.1183 6.10054 19.25 6.41848 19.25 6.75C19.25 7.08152 19.1183 7.39946 18.8839 7.63388C18.6495 7.8683 18.3315 8 18 8C17.6685 8 17.3505 7.8683 17.1161 7.63388C16.8817 7.39946 16.75 7.08152 16.75 6.75C16.75 6.41848 16.8817 6.10054 17.1161 5.86612C17.3505 5.6317 17.6685 5.5 18 5.5ZM12.75 7C14.0761 7 15.3479 7.52678 16.2855 8.46447C17.2232 9.40215 17.75 10.6739 17.75 12C17.75 13.3261 17.2232 14.5979 16.2855 15.5355C15.3479 16.4732 14.0761 17 12.75 17C11.4239 17 10.1521 16.4732 9.21447 15.5355C8.27678 14.5979 7.75 13.3261 7.75 12C7.75 10.6739 8.27678 9.40215 9.21447 8.46447C10.1521 7.52678 11.4239 7 12.75 7ZM12.75 9C11.9544 9 11.1913 9.31607 10.6287 9.87868C10.0661 10.4413 9.75 11.2044 9.75 12C9.75 12.7956 10.0661 13.5587 10.6287 14.1213C11.1913 14.6839 11.9544 15 12.75 15C13.5456 15 14.3087 14.6839 14.8713 14.1213C15.4339 13.5587 15.75 12.7956 15.75 12C15.75 11.2044 15.4339 10.4413 14.8713 9.87868C14.3087 9.31607 13.5456 9 12.75 9Z" fill="#898C8E"/>
</svg>
