<svg xmlns="http://www.w3.org/2000/svg" width="25" height="24" viewBox="0 0 25 24" fill="none">
  <path d="M10.75 15L15.94 12L10.75 9V15ZM22.31 7.17C22.44 7.64 22.53 8.27 22.59 9.07C22.66 9.87 22.69 10.56 22.69 11.16L22.75 12C22.75 14.19 22.59 15.8 22.31 16.83C22.06 17.73 21.48 18.31 20.58 18.56C20.11 18.69 19.25 18.78 17.93 18.84C16.63 18.91 15.44 18.94 14.34 18.94L12.75 19C8.56 19 5.95 18.84 4.92 18.56C4.02 18.31 3.44 17.73 3.19 16.83C3.06 16.36 2.97 15.73 2.91 14.93C2.84 14.13 2.81 13.44 2.81 12.84L2.75 12C2.75 9.81 2.91 8.2 3.19 7.17C3.44 6.27 4.02 5.69 4.92 5.44C5.39 5.31 6.25 5.22 7.57 5.16C8.87 5.09 10.06 5.06 11.16 5.06L12.75 5C16.94 5 19.55 5.16 20.58 5.44C21.48 5.69 22.06 6.27 22.31 7.17Z" fill="#898C8E"/>
</svg>
